<?xml version="1.0" encoding="UTF-8"?>
<svg id="Layer_2" data-name="Layer 2" xmlns="http://www.w3.org/2000/svg" viewBox="0 0 2215.47 360.67">
  <defs>
    <style>
      .cls-1 {
        fill: #38b7e8;
      }

      .cls-2 {
        fill: #f9fcfa;
      }

      .cls-3 {
        fill: #fdfcf7;
      }

      .cls-4 {
        fill: #10385b;
      }

      .cls-5 {
        fill: #0d3452;
      }
    </style>
  </defs>
  <g id="Layer_1-2" data-name="Layer 1">
    <g>
      <path class="cls-1" d="M1602.73,311.79c-1.39,0-2.58-.44-3.55-1.31-.97-.87-1.46-1.93-1.46-3.17s.49-2.3,1.46-3.17c.97-.87,2.16-1.31,3.55-1.31s2.57.44,3.55,1.31c.97.87,1.46,1.93,1.46,3.17s-.49,2.3-1.46,3.17c-.97.87-2.16,1.31-3.55,1.31Z"/>
      <path class="cls-1" d="M1642.87,312.16c-4.51,0-8.49-1.01-11.92-3.03-3.43-2.02-6.12-4.83-8.07-8.43-1.95-3.6-2.92-7.73-2.92-12.41s.97-8.94,2.92-12.55c1.95-3.61,4.64-6.43,8.07-8.45,3.43-2.02,7.41-3.03,11.92-3.03,2.63,0,5.04.35,7.24,1.04,2.2.69,4.14,1.61,5.85,2.76,1.7,1.15,3.11,2.42,4.24,3.82,1.13,1.4,1.96,2.8,2.48,4.21l-5.98,1.66c-.28-.86-.79-1.77-1.53-2.74-.74-.97-1.69-1.88-2.85-2.74-1.16-.86-2.53-1.56-4.11-2.1-1.58-.54-3.36-.81-5.33-.81-3.53,0-6.52.86-8.98,2.57-2.46,1.72-4.34,4-5.64,6.85-1.3,2.85-1.95,6.02-1.95,9.5s.65,6.57,1.95,9.42c1.3,2.85,3.18,5.13,5.64,6.83,2.46,1.7,5.45,2.55,8.98,2.55,2.01,0,3.82-.28,5.43-.83,1.61-.55,3.01-1.27,4.2-2.14,1.19-.87,2.16-1.81,2.9-2.82s1.25-1.96,1.53-2.84l5.94,1.66c-.5,1.44-1.31,2.86-2.46,4.27-1.14,1.41-2.58,2.71-4.31,3.88-1.73,1.18-3.71,2.12-5.94,2.82-2.23.71-4.65,1.06-7.28,1.06Z"/>
      <path class="cls-1" d="M1694.55,312.28c-4.51,0-8.49-1.02-11.92-3.05-3.43-2.03-6.12-4.86-8.07-8.47-1.95-3.61-2.92-7.75-2.92-12.43s.97-8.94,2.92-12.56c1.95-3.61,4.64-6.43,8.07-8.47,3.43-2.03,7.41-3.05,11.92-3.05s8.45,1.02,11.9,3.05c3.45,2.03,6.15,4.86,8.09,8.47,1.95,3.61,2.92,7.8,2.92,12.56s-.97,8.82-2.9,12.43c-1.93,3.61-4.62,6.43-8.07,8.47-3.45,2.03-7.43,3.05-11.95,3.05ZM1694.55,307.18c3.56,0,6.57-.86,9.05-2.57,2.47-1.72,4.35-4,5.64-6.85,1.28-2.85,1.93-5.99,1.93-9.42s-.65-6.62-1.95-9.48c-1.3-2.86-3.18-5.16-5.66-6.89-2.47-1.73-5.47-2.59-9-2.59s-6.52.87-8.98,2.59c-2.46,1.73-4.34,4.03-5.64,6.89-1.3,2.86-1.95,6.03-1.95,9.48s.64,6.57,1.92,9.42c1.28,2.85,3.15,5.13,5.61,6.85,2.46,1.72,5.47,2.57,9.02,2.57Z"/>
      <path class="cls-1" d="M1729.22,311.29v-46.4h6.12l.05,10.58h-.7c.71-2.6,1.86-4.73,3.43-6.39,1.58-1.66,3.42-2.91,5.54-3.74,2.12-.83,4.29-1.24,6.52-1.24,3.8,0,6.94,1.05,9.39,3.15,2.46,2.1,4.03,4.92,4.71,8.47h-1.02c.62-2.41,1.73-4.48,3.34-6.21,1.61-1.73,3.57-3.06,5.89-4.01,2.32-.94,4.85-1.41,7.61-1.41,3.09,0,5.85.6,8.28,1.8,2.43,1.2,4.34,2.99,5.75,5.35,1.41,2.37,2.11,5.29,2.11,8.78v31.25h-6.26v-31.09c0-3.74-1.11-6.49-3.34-8.26-2.23-1.77-4.96-2.66-8.21-2.66-2.47,0-4.65.47-6.54,1.41-1.89.94-3.36,2.27-4.43,3.98-1.07,1.72-1.6,3.72-1.6,6.02v30.59h-6.26v-31.58c0-3.21-1.04-5.75-3.13-7.62-2.09-1.87-4.79-2.8-8.09-2.8-2.32,0-4.45.48-6.4,1.45s-3.51,2.35-4.68,4.15c-1.18,1.8-1.76,3.98-1.76,6.56v29.84h-6.31Z"/>
    </g>
    <g>
      <path class="cls-4" d="M0,214.26v-121.5h21.77v50.23h56.51v-50.23h21.77v121.5h-21.77v-52.92H21.77v52.92H0Z"/>
      <path class="cls-4" d="M162.15,216.13c-9.19,0-17.08-1.93-23.69-5.79-6.6-3.86-11.69-9.3-15.25-16.31-3.56-7.01-5.34-15.28-5.34-24.79s1.75-17.64,5.26-24.71c3.51-7.07,8.48-12.6,14.92-16.59,6.44-4,14.01-5.99,22.71-5.99,5.54,0,10.83.9,15.86,2.69,5.03,1.79,9.49,4.57,13.37,8.32,3.89,3.75,6.93,8.52,9.13,14.31,2.2,5.79,3.3,12.68,3.3,20.67v6.69h-74.53v-14.43h64.01l-9.95,4.24c0-5.11-.79-9.61-2.36-13.5-1.58-3.89-3.93-6.92-7.05-9.09-3.13-2.17-7.03-3.26-11.7-3.26s-8.64,1.1-11.91,3.3c-3.26,2.2-5.75,5.14-7.46,8.81-1.71,3.67-2.57,7.76-2.57,12.27v9.95c0,5.76.98,10.63,2.94,14.6,1.96,3.97,4.7,6.96,8.24,8.97,3.53,2.01,7.64,3.02,12.31,3.02,3.1,0,5.91-.45,8.44-1.35,2.53-.9,4.72-2.23,6.56-4,1.85-1.77,3.23-3.93,4.16-6.48l19.49,4c-1.47,4.89-3.97,9.17-7.5,12.84-3.53,3.67-7.95,6.52-13.25,8.56-5.3,2.04-11.35,3.06-18.14,3.06Z"/>
      <path class="cls-4" d="M246.02,216.13c-5.76,0-10.95-1.05-15.57-3.14-4.62-2.09-8.26-5.18-10.93-9.26-2.66-4.08-4-9.1-4-15.09,0-5.16.96-9.43,2.89-12.8,1.93-3.37,4.54-6.06,7.83-8.07,3.29-2.01,7-3.53,11.13-4.57,4.13-1.03,8.43-1.77,12.88-2.2,5.27-.6,9.57-1.11,12.88-1.55,3.32-.43,5.75-1.14,7.3-2.12,1.55-.98,2.32-2.5,2.32-4.57v-.41c0-2.99-.6-5.53-1.79-7.62-1.2-2.09-2.98-3.7-5.34-4.81-2.37-1.11-5.29-1.67-8.77-1.67s-6.59.54-9.17,1.63c-2.58,1.09-4.69,2.5-6.32,4.24-1.63,1.74-2.83,3.62-3.59,5.63l-19.65-4c1.79-5.38,4.57-9.83,8.32-13.33,3.75-3.51,8.22-6.13,13.41-7.87,5.19-1.74,10.83-2.61,16.92-2.61,4.29,0,8.63.5,13.01,1.51,4.38,1.01,8.39,2.7,12.03,5.1,3.64,2.39,6.58,5.6,8.81,9.62,2.23,4.02,3.34,9.08,3.34,15.17v60.91h-20.3v-12.56h-.82c-1.36,2.56-3.22,4.93-5.59,7.13-2.37,2.2-5.3,3.97-8.81,5.3-3.51,1.33-7.65,2-12.44,2ZM251.48,200.4c4.4,0,8.19-.87,11.38-2.61,3.18-1.74,5.65-4.04,7.42-6.89,1.77-2.85,2.65-5.97,2.65-9.34v-10.76c-.71.54-1.89,1.06-3.55,1.55-1.66.49-3.51.92-5.54,1.3-2.04.38-4.05.71-6.03.98-1.99.27-3.66.49-5.02.65-3.15.44-6.01,1.14-8.56,2.12-2.56.98-4.55,2.35-5.99,4.12-1.44,1.77-2.16,4.06-2.16,6.89,0,2.61.67,4.8,2,6.56,1.33,1.77,3.15,3.11,5.46,4.04,2.31.92,4.96,1.39,7.95,1.39Z"/>
      <path class="cls-4" d="M336,92.76v121.5h-21.2v-121.5h21.2Z"/>
      <path class="cls-4" d="M401.44,123.09v16.63h-51.78v-16.63h51.78ZM362.63,101.4h21.2v87.17c0,3.32.71,5.75,2.12,7.3,1.41,1.55,3.72,2.32,6.93,2.32.98,0,2.27-.12,3.87-.37,1.6-.25,2.9-.48,3.87-.69l3.34,16.39c-2.34.71-4.73,1.21-7.18,1.51-2.45.3-4.78.45-7.01.45-8.75,0-15.47-2.17-20.14-6.52-4.68-4.35-7.01-10.55-7.01-18.59v-88.96Z"/>
      <path class="cls-4" d="M438.1,160.85v53.41h-21.2v-121.5h20.88v52.84h-2.2c2.55-7.88,6.31-13.79,11.25-17.74,4.95-3.94,11.14-5.91,18.59-5.91,6.25,0,11.73,1.33,16.43,4,4.7,2.66,8.34,6.55,10.93,11.66,2.58,5.11,3.87,11.33,3.87,18.67v57.98h-21.28v-54.72c0-6.09-1.58-10.87-4.73-14.35-3.15-3.48-7.5-5.22-13.05-5.22-3.75,0-7.09.82-10.03,2.45s-5.25,4.01-6.93,7.14c-1.69,3.13-2.53,6.89-2.53,11.29Z"/>
      <path class="cls-4" d="M570.24,215.89c-10.66,0-20.17-2.47-28.54-7.42-8.37-4.95-14.98-12.07-19.81-21.36-4.84-9.3-7.26-20.47-7.26-33.51s2.43-24.31,7.3-33.64c4.86-9.32,11.5-16.46,19.9-21.4,8.4-4.95,17.87-7.42,28.42-7.42,6.63,0,12.84.94,18.63,2.81,5.79,1.88,10.95,4.62,15.49,8.24,4.54,3.62,8.28,8.03,11.21,13.25s4.89,11.14,5.87,17.78h-21.94c-.71-3.64-1.92-6.85-3.63-9.62-1.71-2.77-3.85-5.12-6.4-7.05-2.56-1.93-5.44-3.4-8.64-4.4-3.21-1-6.63-1.51-10.27-1.51-6.63,0-12.52,1.67-17.65,5.02-5.14,3.34-9.16,8.21-12.07,14.6-2.91,6.39-4.36,14.18-4.36,23.36s1.47,17.12,4.4,23.48,6.97,11.17,12.11,14.43c5.14,3.26,10.97,4.89,17.49,4.89,3.64,0,7.07-.5,10.27-1.51,3.21-1.01,6.1-2.47,8.68-4.4,2.58-1.93,4.74-4.29,6.48-7.09,1.74-2.8,2.94-5.99,3.59-9.58h22.02c-.82,5.82-2.6,11.27-5.34,16.35-2.75,5.08-6.35,9.55-10.8,13.41-4.46,3.86-9.64,6.88-15.53,9.05-5.9,2.17-12.44,3.26-19.61,3.26Z"/>
      <path class="cls-4" d="M678.41,216.13c-8.86,0-16.55-1.97-23.08-5.91-6.52-3.94-11.57-9.43-15.13-16.47-3.56-7.04-5.34-15.23-5.34-24.59s1.78-17.74,5.34-24.83c3.56-7.09,8.6-12.6,15.13-16.51s14.22-5.87,23.08-5.87,16.63,1.96,23.16,5.87,11.56,9.42,15.13,16.51c3.56,7.09,5.34,15.37,5.34,24.83s-1.78,17.55-5.34,24.59c-3.56,7.04-8.6,12.53-15.13,16.47-6.52,3.94-14.24,5.91-23.16,5.91ZM678.41,198.93c4.95,0,9.06-1.33,12.35-4,3.29-2.66,5.73-6.25,7.34-10.76,1.6-4.51,2.41-9.54,2.41-15.09s-.8-10.65-2.41-15.17c-1.6-4.51-4.05-8.1-7.34-10.76-3.29-2.66-7.41-4-12.35-4s-9.04,1.33-12.27,4c-3.24,2.66-5.65,6.24-7.26,10.72-1.6,4.49-2.41,9.55-2.41,15.21s.8,10.57,2.41,15.09c1.6,4.51,4.02,8.1,7.26,10.76,3.23,2.66,7.32,4,12.27,4Z"/>
      <path class="cls-4" d="M761.62,214.26l-33.92-91.17h22.67l16.63,49.58c1.96,5.82,3.64,11.66,5.06,17.53,1.41,5.87,2.85,11.82,4.32,17.86h-5.3c1.52-6.03,2.98-11.99,4.36-17.86,1.39-5.87,3.03-11.71,4.93-17.53l16.55-49.58h22.51l-34.08,91.17h-23.73Z"/>
      <path class="cls-4" d="M869.3,216.13c-9.19,0-17.08-1.93-23.69-5.79-6.6-3.86-11.69-9.3-15.25-16.31-3.56-7.01-5.34-15.28-5.34-24.79s1.75-17.64,5.26-24.71c3.51-7.07,8.48-12.6,14.92-16.59,6.44-4,14.01-5.99,22.71-5.99,5.54,0,10.83.9,15.86,2.69,5.03,1.79,9.49,4.57,13.37,8.32,3.89,3.75,6.93,8.52,9.13,14.31,2.2,5.79,3.3,12.68,3.3,20.67v6.69h-74.53v-14.43h64.01l-9.95,4.24c0-5.11-.79-9.61-2.36-13.5-1.58-3.89-3.93-6.92-7.05-9.09-3.13-2.17-7.03-3.26-11.7-3.26s-8.64,1.1-11.91,3.3c-3.26,2.2-5.75,5.14-7.46,8.81-1.71,3.67-2.57,7.76-2.57,12.27v9.95c0,5.76.98,10.63,2.94,14.6,1.96,3.97,4.7,6.96,8.24,8.97,3.53,2.01,7.64,3.02,12.31,3.02,3.1,0,5.91-.45,8.44-1.35,2.53-.9,4.72-2.23,6.56-4,1.85-1.77,3.23-3.93,4.16-6.48l19.49,4c-1.47,4.89-3.97,9.17-7.5,12.84-3.53,3.67-7.95,6.52-13.25,8.56-5.3,2.04-11.35,3.06-18.14,3.06Z"/>
      <path class="cls-4" d="M926.1,214.26v-91.17h20.55v15.25h.98c1.63-5.27,4.48-9.34,8.56-12.19,4.08-2.85,8.73-4.28,13.94-4.28,1.2,0,2.53.05,4,.16,1.47.11,2.72.24,3.75.41v19.49c-.87-.27-2.28-.52-4.24-.73-1.96-.22-3.89-.33-5.79-.33-3.91,0-7.43.84-10.56,2.53-3.13,1.69-5.57,4.01-7.34,6.97-1.77,2.96-2.65,6.37-2.65,10.23v53.66h-21.2Z"/>
      <path class="cls-4" d="M1014.62,216.13c-5.76,0-10.95-1.05-15.57-3.14-4.62-2.09-8.26-5.18-10.93-9.26-2.66-4.08-4-9.1-4-15.09,0-5.16.96-9.43,2.89-12.8,1.93-3.37,4.54-6.06,7.83-8.07,3.29-2.01,7-3.53,11.13-4.57,4.13-1.03,8.43-1.77,12.88-2.2,5.27-.6,9.57-1.11,12.88-1.55,3.32-.43,5.75-1.14,7.3-2.12,1.55-.98,2.32-2.5,2.32-4.57v-.41c0-2.99-.6-5.53-1.79-7.62-1.2-2.09-2.98-3.7-5.34-4.81-2.37-1.11-5.29-1.67-8.77-1.67s-6.59.54-9.17,1.63c-2.58,1.09-4.69,2.5-6.32,4.24-1.63,1.74-2.83,3.62-3.59,5.63l-19.65-4c1.79-5.38,4.57-9.83,8.32-13.33,3.75-3.51,8.22-6.13,13.41-7.87,5.19-1.74,10.83-2.61,16.92-2.61,4.29,0,8.63.5,13.01,1.51,4.38,1.01,8.38,2.7,12.03,5.1,3.64,2.39,6.58,5.6,8.81,9.62,2.23,4.02,3.34,9.08,3.34,15.17v60.91h-20.3v-12.56h-.82c-1.36,2.56-3.22,4.93-5.58,7.13-2.37,2.2-5.3,3.97-8.81,5.3-3.51,1.33-7.65,2-12.44,2ZM1020.08,200.4c4.4,0,8.19-.87,11.38-2.61,3.18-1.74,5.65-4.04,7.42-6.89,1.77-2.85,2.65-5.97,2.65-9.34v-10.76c-.71.54-1.89,1.06-3.55,1.55-1.66.49-3.51.92-5.54,1.3-2.04.38-4.05.71-6.03.98-1.99.27-3.66.49-5.01.65-3.15.44-6.01,1.14-8.56,2.12-2.56.98-4.55,2.35-5.99,4.12-1.44,1.77-2.16,4.06-2.16,6.89,0,2.61.67,4.8,2,6.56,1.33,1.77,3.15,3.11,5.46,4.04,2.31.92,4.96,1.39,7.95,1.39Z"/>
      <path class="cls-4" d="M1122.7,250.3c-7.29,0-13.63-.92-19.04-2.77-5.41-1.85-9.84-4.36-13.29-7.54-3.45-3.18-5.94-6.78-7.46-10.8l17.94-6.44c.98,1.68,2.32,3.42,4.04,5.22,1.71,1.79,4,3.27,6.85,4.44,2.85,1.17,6.48,1.75,10.89,1.75,6.58,0,11.85-1.54,15.82-4.61,3.97-3.07,5.95-7.87,5.95-14.39v-17.21h-1.79c-1.03,2.17-2.56,4.42-4.57,6.73-2.01,2.31-4.72,4.25-8.11,5.83-3.4,1.58-7.73,2.36-13.01,2.36-6.96,0-13.28-1.64-18.96-4.93-5.68-3.29-10.19-8.22-13.54-14.8-3.34-6.58-5.01-14.81-5.01-24.71s1.68-18.46,5.05-25.36c3.37-6.9,7.9-12.15,13.58-15.74s12.03-5.38,19.04-5.38c5.38,0,9.81.9,13.29,2.69,3.48,1.79,6.25,3.95,8.32,6.48,2.07,2.53,3.64,4.88,4.73,7.05h1.14v-15.09h20.79v91.41c0,8.1-1.85,14.8-5.54,20.1-3.7,5.3-8.75,9.24-15.17,11.82-6.42,2.58-13.73,3.87-21.94,3.87ZM1122.87,196.16c4.62,0,8.53-1.1,11.74-3.3,3.21-2.2,5.65-5.39,7.34-9.58,1.68-4.19,2.53-9.19,2.53-15s-.83-10.8-2.49-15.13c-1.66-4.32-4.09-7.69-7.3-10.11-3.21-2.42-7.15-3.63-11.82-3.63s-8.79,1.26-12.03,3.79c-3.24,2.53-5.67,5.95-7.3,10.27-1.63,4.32-2.45,9.25-2.45,14.8s.83,10.49,2.49,14.68c1.66,4.19,4.1,7.43,7.34,9.74,3.23,2.31,7.22,3.47,11.95,3.47Z"/>
      <path class="cls-4" d="M1226.47,216.13c-9.19,0-17.08-1.93-23.69-5.79-6.6-3.86-11.69-9.3-15.25-16.31-3.56-7.01-5.34-15.28-5.34-24.79s1.75-17.64,5.26-24.71c3.51-7.07,8.48-12.6,14.92-16.59,6.44-4,14.01-5.99,22.71-5.99,5.54,0,10.83.9,15.86,2.69s9.49,4.57,13.37,8.32,6.93,8.52,9.13,14.31c2.2,5.79,3.3,12.68,3.3,20.67v6.69h-74.53v-14.43h64.01l-9.95,4.24c0-5.11-.79-9.61-2.36-13.5-1.58-3.89-3.93-6.92-7.05-9.09-3.13-2.17-7.03-3.26-11.7-3.26s-8.64,1.1-11.91,3.3c-3.26,2.2-5.75,5.14-7.46,8.81-1.71,3.67-2.57,7.76-2.57,12.27v9.95c0,5.76.98,10.63,2.94,14.6,1.96,3.97,4.7,6.96,8.24,8.97,3.53,2.01,7.64,3.02,12.31,3.02,3.1,0,5.91-.45,8.44-1.35,2.53-.9,4.71-2.23,6.56-4,1.85-1.77,3.23-3.93,4.16-6.48l19.49,4c-1.47,4.89-3.97,9.17-7.5,12.84-3.54,3.67-7.95,6.52-13.25,8.56-5.3,2.04-11.35,3.06-18.14,3.06Z"/>
      <path class="cls-1" d="M1327.44,215.95c-9.5,0-17.75-1.32-24.75-3.96-7-2.64-12.48-6.48-16.43-11.52-3.95-5.04-6.09-11.16-6.42-18.35h21.66c.38,3.82,1.73,7,4.04,9.54,2.31,2.54,5.35,4.44,9.14,5.69,3.79,1.25,7.99,1.87,12.6,1.87s9.1-.66,12.81-1.98c3.71-1.32,6.6-3.17,8.69-5.54,2.09-2.37,3.13-5.12,3.13-8.26,0-2.84-.92-5.19-2.76-7.05-1.84-1.86-4.42-3.44-7.74-4.73-3.32-1.3-7.21-2.43-11.65-3.41l-13.92-3.23c-10.27-2.35-18.27-5.9-24.01-10.64-5.74-4.75-8.61-10.98-8.61-18.71,0-6.46,1.95-12.11,5.85-16.95,3.9-4.84,9.22-8.6,15.98-11.27,6.75-2.67,14.41-4,22.98-4s16.39,1.35,22.98,4.04c6.59,2.69,11.74,6.41,15.44,11.15,3.71,4.75,5.64,10.15,5.81,16.22h-21.33c-.55-4.7-2.9-8.33-7.04-10.9-4.15-2.57-9.54-3.85-16.18-3.85-4.61,0-8.58.62-11.9,1.87-3.32,1.25-5.88,2.95-7.66,5.1-1.79,2.15-2.68,4.62-2.68,7.41,0,3.03,1.06,5.53,3.17,7.49,2.11,1.96,4.78,3.52,7.99,4.7,3.21,1.17,6.47,2.13,9.76,2.86l11.45,2.64c4.56.98,8.98,2.28,13.26,3.89,4.28,1.61,8.14,3.66,11.57,6.13,3.43,2.47,6.16,5.47,8.19,8.99,2.03,3.52,3.05,7.66,3.05,12.4,0,6.41-1.84,12.05-5.52,16.92-3.68,4.87-8.98,8.66-15.9,11.38s-15.26,4.07-25.04,4.07Z"/>
      <path class="cls-1" d="M1432.92,215.95c-9.28,0-17.25-1.74-23.93-5.21-6.67-3.47-11.8-8.37-15.4-14.68-3.6-6.31-5.39-13.75-5.39-22.31s1.77-15.88,5.31-22.24c3.54-6.36,8.57-11.34,15.07-14.94,6.51-3.6,14.15-5.39,22.94-5.39,5.6,0,10.94.81,16.02,2.42,5.08,1.61,9.58,4.11,13.51,7.49,3.92,3.38,7,7.67,9.22,12.88,2.22,5.21,3.33,11.41,3.33,18.6v6.02h-75.28v-12.99h64.65l-10.05,3.82c0-4.6-.8-8.65-2.39-12.15-1.59-3.5-3.97-6.23-7.12-8.18-3.16-1.96-7.1-2.94-11.82-2.94s-8.73.99-12.02,2.97c-3.29,1.98-5.81,4.62-7.54,7.93-1.73,3.3-2.59,6.98-2.59,11.04v8.95c0,5.19.99,9.57,2.96,13.14,1.98,3.57,4.75,6.26,8.32,8.07,3.57,1.81,7.71,2.72,12.44,2.72,3.13,0,5.97-.4,8.52-1.21,2.55-.81,4.76-2.01,6.63-3.6,1.87-1.59,3.27-3.53,4.2-5.83l19.68,3.6c-1.48,4.4-4.01,8.26-7.58,11.56-3.57,3.3-8.03,5.87-13.38,7.71-5.35,1.83-11.46,2.75-18.32,2.75Z"/>
      <path class="cls-1" d="M1518.47,215.95c-5.82,0-11.06-.94-15.73-2.83-4.67-1.88-8.35-4.66-11.04-8.33-2.69-3.67-4.04-8.19-4.04-13.58,0-4.65.97-8.49,2.92-11.52,1.95-3.03,4.58-5.46,7.91-7.27,3.32-1.81,7.07-3.18,11.24-4.11,4.17-.93,8.51-1.59,13.01-1.98,5.33-.54,9.66-1,13.01-1.39,3.35-.39,5.81-1.03,7.37-1.91,1.56-.88,2.35-2.25,2.35-4.11v-.37c0-2.69-.61-4.98-1.81-6.86-1.21-1.88-3.01-3.33-5.39-4.33-2.39-1-5.34-1.5-8.85-1.5s-6.66.49-9.26,1.47c-2.61.98-4.74,2.25-6.38,3.82-1.65,1.57-2.86,3.25-3.62,5.06l-19.85-3.6c1.81-4.84,4.61-8.84,8.4-12,3.79-3.16,8.3-5.52,13.55-7.08,5.24-1.57,10.94-2.35,17.09-2.35,4.34,0,8.72.45,13.14,1.36,4.42.91,8.47,2.43,12.15,4.59,3.68,2.15,6.64,5.04,8.89,8.66,2.25,3.62,3.38,8.17,3.38,13.65v54.82h-20.51v-11.3h-.82c-1.37,2.3-3.25,4.44-5.64,6.42s-5.35,3.57-8.89,4.77c-3.54,1.2-7.73,1.8-12.56,1.8ZM1523.99,201.78c4.45,0,8.28-.78,11.49-2.35,3.21-1.56,5.71-3.63,7.49-6.2,1.78-2.57,2.68-5.37,2.68-8.4v-9.69c-.71.49-1.91.95-3.58,1.39-1.68.44-3.54.83-5.6,1.17-2.06.34-4.09.64-6.09.88-2,.25-3.69.44-5.06.59-3.19.39-6.07,1.03-8.65,1.91-2.58.88-4.6,2.12-6.05,3.71-1.46,1.59-2.18,3.66-2.18,6.2,0,2.35.67,4.32,2.02,5.91,1.34,1.59,3.18,2.8,5.52,3.63,2.33.83,5.01,1.25,8.03,1.25Z"/>
      <path class="cls-1" d="M1588.78,214.26v-82.05h20.75v13.72h.99c1.65-4.75,4.53-8.4,8.65-10.97,4.12-2.57,8.81-3.85,14.08-3.85,1.21,0,2.55.05,4.04.15,1.48.1,2.74.22,3.79.37v17.54c-.88-.24-2.31-.46-4.28-.66-1.98-.19-3.93-.29-5.85-.29-3.95,0-7.51.76-10.67,2.27-3.16,1.52-5.63,3.61-7.41,6.27-1.78,2.67-2.68,5.74-2.68,9.21v48.29h-21.41Z"/>
      <path class="cls-1" d="M1691.14,215.95c-8.95,0-16.72-1.77-23.31-5.32-6.59-3.55-11.68-8.49-15.28-14.82-3.6-6.34-5.39-13.71-5.39-22.13s1.8-15.96,5.39-22.35c3.6-6.38,8.69-11.34,15.28-14.86s14.36-5.28,23.31-5.28c5.11,0,9.85.59,14.25,1.76,4.39,1.17,8.32,2.87,11.78,5.1,3.46,2.23,6.35,4.93,8.69,8.11,2.33,3.18,3.99,6.78,4.98,10.79l-20.01,3.74c-.61-2.1-1.47-4.02-2.59-5.76-1.13-1.74-2.51-3.22-4.16-4.44-1.65-1.22-3.54-2.17-5.68-2.83-2.14-.66-4.5-.99-7.08-.99-5,0-9.14,1.19-12.44,3.56-3.29,2.37-5.77,5.58-7.41,9.61-1.65,4.04-2.47,8.62-2.47,13.76s.82,9.59,2.47,13.65c1.65,4.06,4.12,7.28,7.41,9.65,3.29,2.37,7.44,3.56,12.44,3.56,2.64,0,5.04-.34,7.21-1.03,2.17-.68,4.09-1.66,5.76-2.94,1.67-1.27,3.09-2.81,4.24-4.62,1.15-1.81,2-3.82,2.55-6.02l20.01,3.74c-.99,4.11-2.65,7.78-4.98,11.01-2.33,3.23-5.24,5.98-8.73,8.26-3.49,2.27-7.44,4.02-11.86,5.25-4.42,1.22-9.21,1.83-14.37,1.83Z"/>
      <path class="cls-1" d="M1770.02,166.19v48.07h-21.41v-109.35h21.08v47.56h-2.22c2.58-7.09,6.37-12.41,11.37-15.96,5-3.55,11.25-5.32,18.78-5.32,6.31,0,11.84,1.2,16.59,3.6,4.75,2.4,8.43,5.9,11.04,10.49,2.61,4.6,3.91,10.2,3.91,16.81v52.18h-21.5v-49.24c0-5.48-1.59-9.79-4.78-12.92-3.18-3.13-7.58-4.7-13.18-4.7-3.79,0-7.17.73-10.13,2.2s-5.3,3.61-7,6.42c-1.7,2.81-2.55,6.2-2.55,10.16Z"/>
    </g>
    <path class="cls-5" d="M2131.55,53.85c37.49,31.86,30.49,32.43,28.81,68.64-.22,4.84-7.66,4.86-10,3.42-8.87-5.45,3.88-36.2-12.35-39.86,4.52,57.36,1.53,71.92,23.41,125.39,19.39,8.35,37.11,18.66,48.61,36.37,9.35,14.41,5.24,32.63-2.1,46.81-6.42,12.38-17.21,19.47-25.81,28.21-.83-1.65-1.73-1.47-2.72.52l-32.84-20.68c-5.46-2.93-6.91-5.99-4.35-9.17,11.42-10.45,19.02-29.44,12.12-42.99-18.27-35.9-122.12-57.36-159.84-64.68-4.17-3.27.64-10.78,5.27-11.95.38-1.3,1.08-3.21,2.06-3.18,5.7.14,17.35,2.47,23.35,3.8,6.35-.01,11.16,1.94,14.42,5.87,3.27-.56,6.95.53,11.04,3.25,1.68-.43,3.19-1.55,4.52-3.34,5.15,6.52,18.18,6.11,26.62,6.75-.38-53.25,27.34-50.87,18.89-88.65-9.94,7.5-30.84,29.99-37.59,15.89-5.02-10.5,20.55-11.95,28.92-39.28,2.27-7.43,5.61-22.91,12.17-23.69,7.75-2.12,19.28-3.35,27.38,2.55Z"/>
    <path class="cls-5" d="M1934.2,329.33c-13.89,2.21-27.05,3.21-33.8-11.7-1.17-2.6-1.6-9.8,2.28-10.26,14.55-8.4,134.45-42.29,86.42-71.23-40.22-24.24-133.66-33.81-126.19-69.71,5.76-27.73,87.43-41.05,111.01-41.19-17.35,5.72-84.37,19.87-83.87,40.6.84,34.4,150.13,37.17,158.25,82.15,6.66,36.88-85.67,70.56-114.1,81.33Z"/>
    <path class="cls-5" d="M1934.2,329.33c-10.63-2.22-29.17-1.8-30.4-12.36l-1.12-9.6-157.15,53.29h106.01l82.66-31.33Z"/>
    <path class="cls-5" d="M2182.13,322.83c7.94-.24-37.43-21.65-39.91-29.32-24.38,22.31-52.19,39.97-82.09,55.34l-22.99,11.82h96.24c17.66-11.12,34.42-23.28,48.76-37.84Z"/>
    <path class="cls-1" d="M2055.16,180.28c2.84,4.83-2.96,7.97-6.56,6.32-2.44-1.12-7.65-2.98-9-6.23l-5.03-2.97c-7.53-15.07-13.58-30.64-18.16-46.73-9.87,11.15-12.12,25.97-12.97,40.37l-3.67,2.85c-.27,4.21-3.57,8.28-5.27,11.95l-10.64-2.06c-6.19-1.35-3.39-15.43,1.59-17.1-1.73-54.47,26.23-47.28,16.76-84.48-5.13,5.26-30.79,30.19-35.28,15.75-3.8-12.2,20.29-9.64,27.21-35.54,3.05-11.41,10.49-19.43,20.3-21.09,12.68-2.15,20.83,4.63,28.58,12.63,26.29,27.11,12.73,54.81,12.5,54.99-18.53,14.08-4.1-34.88-19.1-36.7,1.73,23.97-.91,48.43,6.46,70.77l12.3,37.29Z"/>
    <path class="cls-5" d="M1985.46,166.68c.18,5.71-2.37,11.36-1.59,17.1-9.7-1.88-46.85-10.67-47.05-23.09-.18-11.5,30.05-21.77,36.79-17.9-3.16,5.8-12.66,8.84-10.21,15.24,2.69,7.02,15.85,12.07,22.07,8.66Z"/>
    <path class="cls-3" d="M2138.75,201.52c-14.75-2.43-27.25-6.33-39.2-10.2,2.26-19.2,2.82-35.8,19-47.66,4.18,19.9,11.52,37.12,20.2,57.85Z"/>
    <path class="cls-2" d="M2039.6,180.37l-39.83-6.48c1.17-18.61,2.93-36.34,18.81-50.29,3.02,19.93,13.19,37.85,21.02,56.77Z"/>
    <circle class="cls-5" cx="2111.35" cy="25.47" r="17.36"/>
    <circle class="cls-1" cx="2011.03" cy="16.98" r="16.98"/>
  </g>
</svg>