<svg width="6312" height="707" fill="none" xmlns="http://www.w3.org/2000/svg"><path d="M24.858 484V211.273h95.17v51.846h2.841c4.972-19.176 12.844-33.203 23.615-42.081 10.891-8.877 23.615-13.316 38.175-13.316 4.261 0 8.464.355 12.607 1.065a80.352 80.352 0 0 1 12.251 2.663v83.63c-4.853-1.658-10.831-2.901-17.933-3.729-7.102-.829-13.199-1.243-18.289-1.243-9.588 0-18.229 2.19-25.923 6.57-7.576 4.261-13.553 10.298-17.933 18.11-4.38 7.694-6.57 16.75-6.57 27.167V484H24.858Zm331.854 4.972c-29.12 0-54.214-5.564-75.284-16.691-20.952-11.245-37.11-27.344-48.473-48.295-11.246-21.07-16.868-46.283-16.868-75.639 0-28.173 5.681-52.794 17.045-73.864 11.364-21.07 27.403-37.465 48.118-49.183 20.715-11.719 45.159-17.578 73.331-17.578 20.597 0 39.24 3.196 55.93 9.588 16.691 6.392 30.954 15.684 42.792 27.876 11.837 12.074 20.951 26.752 27.343 44.034 6.392 17.282 9.588 36.754 9.588 58.416v22.728H246.626v-53.978h153.41c-.119-7.812-2.131-14.678-6.037-20.596-3.788-6.037-8.937-10.713-15.448-14.027-6.392-3.433-13.672-5.149-21.839-5.149-7.931 0-15.211 1.716-21.84 5.149-6.629 3.314-11.955 7.931-15.98 13.849-3.906 5.919-5.978 12.843-6.214 20.774v58.239c0 8.759 1.834 16.572 5.504 23.437 3.669 6.866 8.937 12.252 15.802 16.158 6.866 3.906 15.152 5.86 24.858 5.86 6.747 0 12.903-.947 18.466-2.841 5.682-1.894 10.535-4.617 14.56-8.168 4.025-3.669 6.984-8.049 8.878-13.139h89.488c-3.077 18.939-10.357 35.393-21.839 49.361-11.482 13.849-26.693 24.621-45.632 32.315-18.821 7.576-40.838 11.364-66.051 11.364Zm441.539-277.699L706.632 484H592.995l-91.619-272.727h102.983l44.034 180.397h2.841l44.034-180.397h102.983ZM826.127 484V211.273h98.012V484h-98.012Zm49.006-301.136c-13.257 0-24.621-4.38-34.091-13.14-9.469-8.759-14.204-19.294-14.204-31.605 0-12.31 4.735-22.845 14.204-31.605 9.47-8.76 20.834-13.139 34.091-13.139 13.376 0 24.74 4.38 34.091 13.139 9.47 8.76 14.205 19.295 14.205 31.605 0 12.311-4.735 22.846-14.205 31.605-9.351 8.76-20.715 13.14-34.091 13.14Zm229.627 306.108c-29.12 0-54.22-5.564-75.29-16.691-20.95-11.245-37.105-27.344-48.469-48.295-11.245-21.07-16.867-46.283-16.867-75.639 0-28.173 5.681-52.794 17.045-73.864 11.364-21.07 27.401-37.465 48.121-49.183 20.71-11.719 45.16-17.578 73.33-17.578 20.59 0 39.24 3.196 55.93 9.588 16.69 6.392 30.95 15.684 42.79 27.876 11.84 12.074 20.95 26.752 27.34 44.034 6.4 17.282 9.59 36.754 9.59 58.416v22.728H994.673v-53.978h153.407c-.12-7.812-2.13-14.678-6.03-20.596-3.79-6.037-8.94-10.713-15.45-14.027-6.39-3.433-13.67-5.149-21.84-5.149-7.93 0-15.21 1.716-21.84 5.149-6.63 3.314-11.96 7.931-15.98 13.849-3.91 5.919-5.98 12.843-6.22 20.774v58.239c0 8.759 1.84 16.572 5.51 23.437 3.67 6.866 8.94 12.252 15.8 16.158 6.87 3.906 15.15 5.86 24.86 5.86 6.75 0 12.9-.947 18.47-2.841 5.68-1.894 10.53-4.617 14.55-8.168 4.03-3.669 6.99-8.049 8.88-13.139h89.49c-3.08 18.939-10.36 35.393-21.84 49.361-11.48 13.849-26.69 24.621-45.63 32.315-18.82 7.576-40.84 11.364-66.05 11.364ZM1323.15 484l-68.18-272.727h98.01l31.25 166.193h2.13l34.8-166.193h95.18l36.22 164.772h2.13l29.83-164.772h98.01L1614.35 484h-105.83l-38.35-146.307h-2.84L1428.98 484h-105.83Zm393.47-74.574v-36.221l159.8-252.841h26.28v56.108h-17.76L1764.2 367.523v2.841h215.2v39.062h-262.78ZM1887.78 484V120.364h41.91V484h-41.91Zm330.75-111.506V211.273h41.9V484h-41.9v-46.165h-2.84c-6.39 13.85-16.34 25.628-29.83 35.334-13.5 9.588-30.54 14.382-51.14 14.382-17.04 0-32.2-3.729-45.45-11.186-13.26-7.576-23.68-18.939-31.25-34.091-7.58-15.27-11.37-34.505-11.37-57.706V211.273h41.91v170.454c0 19.887 5.56 35.748 16.69 47.585 11.24 11.838 25.56 17.756 42.97 17.756 10.41 0 21.01-2.663 31.78-7.99 10.89-5.327 20-13.494 27.34-24.503 7.46-11.008 11.19-25.035 11.19-42.081Z" fill="#000"/><path d="m3030.5 0 79.37 244.262h256.83l-207.78 150.963 79.36 244.263-207.78-150.963-207.78 150.963 79.36-244.263-207.78-150.963h256.83L3030.5 0Zm732 0 79.37 244.262h256.83l-207.78 150.963 79.36 244.263-207.78-150.963-207.78 150.963 79.36-244.263-207.78-150.963h256.83L3762.5 0Zm732 0 79.37 244.262h256.83l-207.78 150.963 79.36 244.263-207.78-150.963-207.78 150.963 79.36-244.263-207.78-150.963h256.83L4494.5 0Zm732 0 79.37 244.262h256.83l-207.78 150.963 79.36 244.263-207.78-150.963-207.78 150.963 79.36-244.263-207.78-150.963h256.83L5226.5 0Zm732 0 79.37 244.262h256.83l-207.78 150.963 79.36 244.263-207.78-150.963-207.78 150.963 79.36-244.263-207.78-150.963h256.83L5958.5 0Z" fill="#FFB340"/></svg>